<?xml version="1.0" encoding="iso-8859-1"?>
<!-- Generator: Adobe Illustrator 19.0.0, SVG Export Plug-In . SVG Version: 6.00 Build 0)  -->
<svg version="1.1" id="Capa_1" xmlns="http://www.w3.org/2000/svg" xmlns:xlink="http://www.w3.org/1999/xlink" x="0px" y="0px"
	 viewBox="0 0 511.2 511.2" style="enable-background:new 0 0 511.2 511.2;" xml:space="preserve">
<path style="fill:#FFD15C;" d="M101.6,34.559l9.6,9.6c0,0,14.933,18.133,16,32c0,0-1.067,4.267-2.133,5.333
	c0,0,10.667,11.733,13.867,14.933c3.2,2.133,4.267,7.467,2.133,9.6s-7.467,5.333-7.467,5.333s6.4,10.667,0,12.8
	c0,0,4.267,1.067,3.2,6.4c-1.067,5.333-1.067,6.4,0,9.6c1.067,3.2,0,14.933-6.4,16c-6.4,1.067-23.467,1.067-23.467,1.067
	s-8.533,20.267-10.667,23.467c-2.133,3.2-2.133,3.2-2.133,3.2l-59.733-28.8l3.2-81.067l35.2-34.133L101.6,34.559z"/>
<path style="fill:#425A6B;" d="M34.4,152.959l-2.133-1.067c0,0-1.067-8.533-8.533-26.667C15.2,108.159,0.267,86.825,9.867,55.892
	s67.2-40.533,84.267-37.333c17.067,2.133,27.733,18.133,16,25.6c0,0-30.933-1.067-32,8.533c0,9.6,11.733,7.467,9.6,16
	C85.6,77.225,76,79.359,79.2,91.092c3.2,11.733,3.2,11.733,3.2,11.733l-6.4,3.2c0,0-9.6-17.067-21.333-17.067
	c-12.8,1.067-8.533,27.733-10.667,39.467C41.867,139.092,34.4,152.959,34.4,152.959z"/>
<ellipse transform="matrix(-0.5308 -0.8475 0.8475 -0.5308 1.3046 210.2297)" style="fill:#FFD15C;" cx="58.847" cy="104.754" rx="21.333" ry="12.8"/>
<path style="fill:#F5B54C;" d="M99.467,171.092c3.2-6.4,6.4-14.933,6.4-14.933c-26.667-10.667-34.133-16-49.067-32
	C56.8,124.159,70.667,152.959,99.467,171.092z"/>
<path style="fill:#F3F3F3;" d="M104.8,175.359l-6.4,26.667l-69.333-37.333l2.133-16c3.2,0,24.533,6.4,38.4,10.667
	C82.4,162.559,94.133,168.959,104.8,175.359z"/>
<path style="fill:#CED6E0;" d="M256.267,296.959c0,0-3.2,1.067-4.267,18.133c-2.133,17.067-10.667,109.867-10.667,109.867
	l68.267,6.4l8.533-124.8L256.267,296.959z"/>
<path style="fill:#344A5E;" d="M23.733,178.559c0,0-21.333,26.667-22.4,55.467c-1.067,27.733-3.2,56.533,2.133,70.4
	c5.333,13.867,30.933,103.467,32,125.867c1.067,23.467-2.133,62.933-2.133,62.933h172.8c0,0-5.333-118.4-23.467-152.533
	s-12.8-55.467-35.2-90.667c-22.4-34.133-45.867-54.4-60.8-60.8C71.733,183.892,34.4,173.225,23.733,178.559z"/>
<path style="fill:#425A6B;" d="M29.067,162.559c0,0-3.2,11.733-4.267,14.933c-2.133,2.133-2.133,3.2,1.067,3.2
	s17.067,2.133,35.2,8.533c18.133,6.4,39.467,14.933,48,21.333c8.533,6.4,37.333,40.533,45.867,59.733
	c8.533,19.2,29.867,91.733,29.867,91.733s-11.733-73.6-39.467-116.267s-34.133-44.8-46.933-54.4
	C84.533,181.759,52.533,162.559,29.067,162.559z"/>
<path style="fill:#FFD15C;" d="M376.8,314.025c0,0-4.267,17.067-6.4,17.067l-35.2,1.067l-6.4-25.6l14.933-2.133H357.6
	C357.6,304.426,376.8,303.359,376.8,314.025z"/>
<g>
	<path style="fill:#CED6E0;" d="M409.867,278.826c0,0,0-8.533,2.133-10.667c2.133-2.133,6.4-6.4,7.467-9.6
		c1.067-2.133-10.667-3.2-12.8,0c-3.2,3.2-3.2,10.667-3.2,10.667S392.8,279.892,409.867,278.826z"/>
	<path style="fill:#CED6E0;" d="M409.867,277.759c0,0,13.867-7.467,17.067-10.667c3.2-3.2,12.8-9.6,16-10.667
		c3.2-1.067,9.6,0,8.533,5.333c0,5.333-3.2,5.333-3.2,5.333L409.867,277.759z"/>
</g>
<path style="fill:#E8EAE8;" d="M387.467,270.292c0-1.067-1.067-9.6,5.333-12.8c5.333-3.2,12.8,1.067,12.8,5.333
	c1.067,4.267,1.067,10.667,3.2,12.8c1.067,2.133,12.8,0,16-2.133c4.267-2.133,16-7.467,20.267-9.6s14.933-7.467,19.2-8.533
	c3.2-1.067,9.6,1.067,9.6,4.267c0,4.267-7.467,6.4-11.733,7.467s-13.867,9.6-18.133,12.8c-4.267,2.133-12.8,5.333-14.933,8.533
	c-2.133,2.133-21.333,20.267-25.6,23.467c-4.267,3.2-28.8,20.267-33.067,21.333c0,0,2.133-1.067,1.067-6.4
	c-2.133-9.6-13.867-20.267-13.867-21.333c0,0,4.267-4.267,7.467-7.467c3.2-2.133,8.533-5.333,10.667-8.533
	C377.867,285.225,387.467,270.292,387.467,270.292z"/>
<g>
	<path style="fill:#425A6B;" d="M353.333,247.892c2.133,6.4,7.467,10.667,14.933,10.667h128c6.4,0,12.8-4.267,14.933-10.667H353.333
		z"/>
	<path style="fill:#425A6B;" d="M346.933,300.159c0,0,4.267,4.267,4.267,13.867c0,9.6-4.267,45.867-4.267,45.867
		s-85.333,4.267-107.733,4.267c-21.333,0-39.467,2.133-57.6-4.267c-18.133-6.4-81.067-30.933-92.8-34.133s-45.867-19.2-53.333-51.2
		s0-51.2,6.4-58.667s25.6-17.067,49.067-8.533c23.467,9.6,38.4,27.733,40.533,35.2c0,0,8.533,4.267,8.533,9.6
		c0,0,4.267-1.067,9.6,3.2c5.333,4.267,9.6,9.6,13.867,12.8c4.267,3.2,27.733,16,34.133,19.2c6.4,3.2,48,12.8,72.533,11.733
		C292.533,301.225,346.933,300.159,346.933,300.159z"/>
</g>
<path style="fill:#E8EAE8;" d="M256.267,296.959c0,0,2.133,6.4,3.2,16c0,9.6,0,110.933,0,110.933l77.867,1.067V317.225
	c0,0,0-12.8-6.4-17.067L256.267,296.959z"/>
<g>
</g>
<g>
</g>
<g>
</g>
<g>
</g>
<g>
</g>
<g>
</g>
<g>
</g>
<g>
</g>
<g>
</g>
<g>
</g>
<g>
</g>
<g>
</g>
<g>
</g>
<g>
</g>
<g>
</g>
</svg>
